<?xml version="1.0" encoding="UTF-8"?><svg id="a" xmlns="http://www.w3.org/2000/svg" viewBox="0 0 216 57"><defs><style>.b{fill:#63c;}.c{fill:#0f8ec7;}</style></defs><path d="M216,5.21c0,1.26-1.02,2.27-2.27,2.27s-2.27-1.02-2.27-2.27,1.02-2.27,2.27-2.27,2.27,1.02,2.27,2.27Zm-2.27-1.9c-1.05,0-1.89,.85-1.89,1.9s.85,1.89,1.89,1.89,1.9-.85,1.9-1.89-.85-1.9-1.9-1.9Zm.98,1.41c0,.34-.35,.65-.71,.65,.2,.07,.35,.25,.87,1.09h-.49c-.38-.65-.51-1.04-.92-1.04h-.26v1.04h-.39v-2.45h.99c.74,0,.91,.37,.91,.71m-1.5,.37h.53c.34,0,.55-.09,.55-.37s-.22-.37-.55-.37h-.53v.74m-3.73,21.26h-25V3.13h24.57V7.29h-18.96v5.09h13.03v4.18h-13.03v5.4h19.39v4.4ZM25,21.96H5.61v-5.4h13.03v-4.18H5.61V7.29H24.57V3.13H0V26.36H25v-4.4ZM72.23,7.51h11.18V3.13h-27.92V7.51h11.11V26.36h5.63V7.51ZM151.69,3.13h14.83c9.07,0,13.95,3.96,13.95,11.58,0,4.59-2.07,7.66-5.44,9.73-2.35,1.48-5.63,1.92-9.95,1.92h-13.39V3.13Zm12.59,18.62c7.14,0,10.6-1.05,10.6-7.14,0-4.99-2.95-7.1-8.26-7.1h-9.24v14.24h6.9Zm-41.84,4.61h-5.63l13.63-23.23h5.55l13.86,23.23h-6.34l-2.9-4.62h-15.35l-2.81,4.62Zm5.22-9.03h10.6l-5.2-9.4-5.4,9.4Zm-35.01,9.03h-5.57V3.13h18.75c5.22,0,8.64,3.09,8.64,7.6,0,3.66-1.76,6.03-5.22,6.99l5.84,8.64h-6.28l-5.62-8.23h-10.53v8.23Zm0-12.69h12.58c2.37,0,3.74-1.17,3.74-3.09,0-1.76-1.4-2.98-3.76-2.98h-12.56v6.07Z"/><polygon class="c" points="55.85 17.87 46.04 17.87 50.94 26.36 45.53 29.48 41.35 22.25 45.69 14.74 41.35 7.23 45.53 0 50.94 3.13 46.04 11.61 55.85 11.61 55.85 17.87"/><polygon class="b" points="44.24 14.74 35.73 0 30.31 3.13 35.21 11.61 25.41 11.61 25.41 17.87 35.21 17.87 30.31 26.36 35.73 29.48 44.24 14.74"/><g><path d="M205.9,49.86l-.03,.15-.03-.15-2.52-7.24h-1.44l3.29,9.34v.07c-.2,.89-.76,1.99-1.27,2.33-.45,.31-.94,.34-1.31,.34-.18,0-.56-.06-.72-.1v1.12c.2,.05,.68,.14,.98,.14,.7,0,1.28-.18,1.78-.54,.59-.43,1.26-1.55,1.58-2.52l3.28-10.2h-1.44l-2.14,7.24Zm-5.01-2.26v-.89c0-1.54-.4-2.68-1.16-3.38-.65-.6-1.56-.89-2.77-.89-.63,0-1.2,.11-1.69,.34-.49,.22-.93,.54-1.27,.97-.67,.83-1.04,2.07-1.04,3.57,0,1.67,.47,2.94,1.34,3.79,.92,.89,2.09,1.08,2.91,1.08,2.11,0,3.14-1.15,3.58-2.2l-1.18-.57c-.29,.64-.93,1.6-2.39,1.6-.84,0-1.53-.33-2.02-.96-.47-.61-.72-1.46-.72-2.47h6.42Zm-1.43-1.17h-4.94c.13-1.93,.92-2.83,2.48-2.83,1.68,0,2.45,.9,2.46,2.83Zm-84.24-2.58c-.73-.93-1.77-1.42-3.01-1.42s-2.28,.49-3.01,1.42c-.68,.87-1.05,2.1-1.05,3.45s.37,2.58,1.05,3.45c.73,.93,1.77,1.42,3.01,1.42s2.28-.49,3.01-1.42c.68-.87,1.06-2.1,1.06-3.45s-.38-2.59-1.06-3.45Zm-3.01,7.17c-1.58,0-2.52-1.39-2.52-3.71s.94-3.71,2.52-3.71,2.52,1.39,2.52,3.71-.94,3.71-2.52,3.71Zm3.01-7.17c-.73-.93-1.77-1.42-3.01-1.42s-2.28,.49-3.01,1.42c-.68,.87-1.05,2.1-1.05,3.45s.37,2.58,1.05,3.45c.73,.93,1.77,1.42,3.01,1.42s2.28-.49,3.01-1.42c.68-.87,1.06-2.1,1.06-3.45s-.38-2.59-1.06-3.45Zm-3.01,7.17c-1.58,0-2.52-1.39-2.52-3.71s.94-3.71,2.52-3.71,2.52,1.39,2.52,3.71-.94,3.71-2.52,3.71Zm7.35-4.3c.36-1.93,1.38-2.85,3.13-2.85v-1.38c-1.49,0-2.36,.58-3.13,1.95v-1.8h-1.47v9.4h1.47v-5.32Zm36-4.39c0-.62,.21-1.12,.6-1.45,.4-.34,.97-.52,1.71-.52,.77,0,1.46,.22,1.98,.64,.48,.38,.83,.94,.99,1.58l1.37-.17c-.6-2.05-2.07-3.3-4.31-3.3-1.11,0-2.11,.34-2.82,.97-.69,.61-1.07,1.45-1.07,2.36,0,1,.41,1.79,1.26,2.41,.75,.54,1.73,.89,2.68,1.23,1.65,.59,3.21,1.14,3.21,2.63,0,.67-.23,1.22-.65,1.62-.47,.43-1.17,.64-2.06,.64-1.57,0-2.71-.88-3.35-2.57l-1.4,.38c.3,.69,.82,1.68,1.56,2.35,.82,.74,1.84,1.09,3.12,1.09,1.51,0,2.66-.4,3.41-1.18,.78-.81,.94-1.85,.94-2.58,0-1.04-.43-1.86-1.32-2.49-.78-.56-1.79-.9-2.77-1.24-1.59-.54-3.1-1.06-3.08-2.4Zm9.5,1.45h-1.41v-1.17h1.41v-3.08h1.47v3.08h1.58v1.17h-1.58v6.42c0,.43,.1,.82,1.09,.82,.17,0,.33,0,.49-.02v1.04s-.56,.14-.97,.14c-.66,0-1.16-.1-1.5-.33-.31-.21-.58-.55-.58-1.13v-6.95Zm25.36,6.42c0,.43,.14,.82,1.12,.82,.16,0,.33,0,.5-.02v1.04s-.56,.14-.98,.14c-.66,0-1.17-.1-1.5-.33-.31-.21-.61-.55-.61-1.13v-11.75h1.47v11.22Zm-46.32-5.13c.5-.54,1.61-1.43,2.63-1.43s1.48,.5,1.48,1.63v6.78h1.47v-6.82c0-2.04-1.45-2.76-2.82-2.76-.96,0-1.93,.5-2.76,1.44h0v-1.26h-1.47v9.4h1.47v-6.98Zm-5.4,5.81c.04,.52,.22,.82,.64,1.04,.39,.21,1.02,.16,1.29,.09v-1c-.33-.02-.54-.17-.54-.57v-5.14c0-.94-.38-1.7-1.08-2.19-.58-.41-1.38-.64-2.25-.64-2.09,0-3.08,1.24-3.5,2.01l1.19,.62c.17-.44,.75-1.47,2.33-1.47,1.25,0,1.88,.56,1.88,1.65v.34s0,.1-.03,.14c-.05,.06-.17,.1-.49,.14-1.75,.19-2.92,.49-3.77,1.04-.93,.6-1.51,1.43-1.51,2.58,0,.81,.4,1.51,.92,2,.48,.46,1.15,.69,1.88,.71,1.54,.05,2.56-.59,3.06-1.34Zm0-1.57c-.07,.82-1.6,1.82-2.85,1.75-.69-.04-1.37-.59-1.44-1.5-.11-1.52,1.05-2.17,3.61-2.45,.18-.02,.51-.08,.68-.18v2.38Zm36.7,1.57c.04,.52,.23,.82,.63,1.04,.39,.21,1.02,.16,1.29,.09v-1c-.33-.02-.54-.17-.54-.57v-5.14c0-.94-.38-1.7-1.08-2.19-.58-.41-1.38-.64-2.25-.64-2.09,0-3.08,1.24-3.5,2.01l1.19,.62c.17-.44,.75-1.47,2.33-1.47,1.25,0,1.88,.56,1.88,1.65v.34s0,.1-.03,.14c-.05,.06-.17,.1-.49,.14-1.75,.19-2.92,.49-3.77,1.04-.93,.6-1.51,1.43-1.51,2.58,0,.81,.4,1.51,.92,2,.48,.46,1.15,.69,1.88,.71,1.54,.05,2.57-.59,3.06-1.34Zm0-1.57c-.07,.82-1.6,1.82-2.85,1.75-.69-.04-1.37-.59-1.44-1.5-.11-1.52,1.05-2.17,3.61-2.45,.18-.02,.51-.08,.69-.18v2.38Zm-74.7,.22l-3.12-10.24h-2.45v12.75h1.47v-11.66l.03,.04,3.5,11.62h1.14l3.5-11.62,.03-.04v11.66h1.47v-12.75h-2.45l-3.11,10.24v.05l-.02-.05Zm80.1-4.46c.5-.54,1.61-1.43,2.64-1.43s1.48,.5,1.48,1.63v6.78h1.47v-6.82c0-2.04-1.45-2.76-2.82-2.76-.96,0-1.93,.5-2.76,1.44h0v-1.26h-1.47v9.4h1.47v-6.98Zm-50.85-2.43l-.31,.99c-.54-.7-1.25-1.17-2.36-1.17-1.66,0-4,1.12-4,4.86s2.35,4.86,3.93,4.86c.93,0,1.77-.51,2.34-1.24l.07-.04v1.79c0,1.25-1.08,2.02-2.24,2.02s-2.13-.21-2.94-.6v1.27c.68,.29,1.8,.49,2.76,.49,2.61,0,3.85-1.44,3.85-3.52v-9.72h-1.1Zm-.33,6.67c-.38,1.08-1.46,1.71-2.24,1.71-1.51,0-2.57-.94-2.57-3.77,0-2.38,.95-3.63,2.57-3.63,.83,0,1.55,.36,2.24,1.21v4.47Z"/><g><path d="M56.9,52.04v-8.25h-1.41v-1.17h1.41v-.89c0-1.72,.67-2.59,2.46-2.59,.29,0,.59,.02,.9,.07v1.24c-.22-.05-.48-.09-.71-.09-.77,0-1.19,.24-1.19,1.25v1.01h1.84v1.17h-1.84v8.25h-1.46Z"/><path d="M74.17,43.86c-.73-.93-1.77-1.42-3.01-1.42s-2.28,.49-3.01,1.42c-.68,.87-1.05,2.1-1.05,3.45s.37,2.58,1.05,3.45c.73,.93,1.77,1.42,3.01,1.42s2.28-.49,3.01-1.42c.68-.87,1.06-2.1,1.06-3.45s-.38-2.59-1.06-3.45Zm-3.01,7.17c-1.58,0-2.52-1.39-2.52-3.71s.94-3.71,2.52-3.71,2.52,1.39,2.52,3.71-.94,3.71-2.52,3.71Z"/><path d="M86.85,42.47c-.96,0-1.93,.5-2.76,1.44l-.19,.2c-.43-1.18-1.55-1.64-2.63-1.64-.96,0-1.93,.5-2.76,1.44v-1.26h-1.47v9.4h1.47v-6.98c.5-.54,1.61-1.43,2.63-1.43s1.48,.5,1.48,1.63v6.78h1.47v-6.82s0-.04,0-.06v-.1c.5-.54,1.61-1.43,2.63-1.43s1.48,.5,1.48,1.63v6.78h1.47v-6.82c0-2.04-1.45-2.76-2.82-2.76Z"/><path d="M63.38,46.72c.36-1.93,1.38-2.85,3.13-2.85v-1.38c-1.49,0-2.36,.58-3.13,1.95v-1.8h-1.47v9.4h1.47v-5.32Z"/></g></g></svg>